<svg version="1.1" viewBox="0.0 0.0 960.0 720.0" fill="none" stroke="none" stroke-linecap="square" stroke-miterlimit="10" xmlns:xlink="http://www.w3.org/1999/xlink" xmlns="http://www.w3.org/2000/svg"><clipPath id="p.0"><path d="m0 0l960.0 0l0 720.0l-960.0 0l0 -720.0z" clip-rule="nonzero"/></clipPath><g clip-path="url(#p.0)"><path fill="#000000" fill-opacity="0.0" d="m0 0l960.0 0l0 720.0l-960.0 0z" fill-rule="evenodd"/><path fill="#000000" fill-opacity="0.0" d="m447.60498 321.2126l64.25198 0l0 77.57483l-64.25198 0z" fill-rule="evenodd"/><path fill="#000000" d="m460.01123 376.2926l0 -34.359375l10.375 0l6.234375 23.4375l6.171875 -23.4375l10.40625 0l0 34.359375l-6.453125 0l0 -27.046875l-6.8125 27.046875l-6.6875 0l-6.796875 -27.046875l0 27.046875l-6.4375 0z" fill-rule="nonzero"/><path fill="#ff4c60" d="m502.2848 366.46985l0 0c0 -0.93063354 0.75442505 -1.6850586 1.6850586 -1.6850586l6.740082 0l0 0c0.44692993 0 0.8755188 0.17752075 1.1915283 0.49353027c0.31600952 0.31600952 0.4935608 0.7446289 0.4935608 1.1915283l0 6.740082c0 0.93066406 -0.75442505 1.6850891 -1.6850891 1.6850891l-6.740082 0c-0.93063354 0 -1.6850586 -0.75442505 -1.6850586 -1.6850891z" fill-rule="evenodd"/><path stroke="#ff4c60" stroke-width="1.0" stroke-linejoin="round" stroke-linecap="butt" d="m502.2848 366.46985l0 0c0 -0.93063354 0.75442505 -1.6850586 1.6850586 -1.6850586l6.740082 0l0 0c0.44692993 0 0.8755188 0.17752075 1.1915283 0.49353027c0.31600952 0.31600952 0.4935608 0.7446289 0.4935608 1.1915283l0 6.740082c0 0.93066406 -0.75442505 1.6850891 -1.6850891 1.6850891l-6.740082 0c-0.93063354 0 -1.6850586 -0.75442505 -1.6850586 -1.6850891z" fill-rule="evenodd"/></g></svg>